<svg width="18" height="14" viewBox="0 0 18 14" fill="none" xmlns="http://www.w3.org/2000/svg">
<path fill-rule="evenodd" clip-rule="evenodd" d="M16.9906 1.13444C17.0634 1.20701 17.1211 1.29322 17.1605 1.38813C17.1999 1.48305 17.2202 1.5848 17.2202 1.68756C17.2202 1.79032 17.1999 1.89207 17.1605 1.98699C17.1211 2.0819 17.0634 2.16812 16.9906 2.24069L6.05314 13.1782C5.98057 13.2509 5.89435 13.3087 5.79944 13.3481C5.70452 13.3874 5.60277 13.4077 5.50001 13.4077C5.39725 13.4077 5.2955 13.3874 5.20058 13.3481C5.10567 13.3087 5.01946 13.2509 4.94689 13.1782L0.259386 8.49069C0.186748 8.41805 0.129129 8.33182 0.0898177 8.23691C0.0505066 8.14201 0.0302734 8.04029 0.0302734 7.93756C0.0302734 7.83484 0.0505067 7.73312 0.0898177 7.63821C0.129129 7.54331 0.186748 7.45707 0.259386 7.38444C0.332023 7.3118 0.418256 7.25418 0.513161 7.21487C0.608067 7.17556 0.709786 7.15532 0.812511 7.15532C0.915236 7.15532 1.01695 7.17556 1.11186 7.21487C1.20677 7.25418 1.293 7.3118 1.36564 7.38444L5.50001 11.5204L15.8844 1.13444C15.957 1.06168 16.0432 1.00396 16.1381 0.964573C16.233 0.925188 16.3347 0.904915 16.4375 0.904915C16.5403 0.904915 16.642 0.925188 16.7369 0.964573C16.8319 1.00396 16.9181 1.06168 16.9906 1.13444Z" fill="#7939FF"/>
</svg>
