<svg width="25" height="25" viewBox="0 0 25 25" fill="none" xmlns="http://www.w3.org/2000/svg">
<g clip-path="url(#clip0)">
<path fill-rule="evenodd" clip-rule="evenodd" d="M12.5 23.4375C15.4008 23.4375 18.1828 22.2852 20.234 20.234C22.2852 18.1828 23.4375 15.4008 23.4375 12.5C23.4375 9.59919 22.2852 6.8172 20.234 4.76602C18.1828 2.71484 15.4008 1.5625 12.5 1.5625C9.59919 1.5625 6.8172 2.71484 4.76602 4.76602C2.71484 6.8172 1.5625 9.59919 1.5625 12.5C1.5625 15.4008 2.71484 18.1828 4.76602 20.234C6.8172 22.2852 9.59919 23.4375 12.5 23.4375ZM12.5 25C15.8152 25 18.9946 23.683 21.3388 21.3388C23.683 18.9946 25 15.8152 25 12.5C25 9.18479 23.683 6.00537 21.3388 3.66117C18.9946 1.31696 15.8152 0 12.5 0C9.18479 0 6.00537 1.31696 3.66117 3.66117C1.31696 6.00537 0 9.18479 0 12.5C0 15.8152 1.31696 18.9946 3.66117 21.3388C6.00537 23.683 9.18479 25 12.5 25Z" fill="white" fill-opacity="0.6"/>
<path fill-rule="evenodd" clip-rule="evenodd" d="M18.5219 6.47809C18.5946 6.55066 18.6524 6.63687 18.6917 6.73178C18.7311 6.8267 18.7514 6.92845 18.7514 7.03121C18.7514 7.13397 18.7311 7.23573 18.6917 7.33064C18.6524 7.42555 18.5946 7.51177 18.5219 7.58434L7.58439 18.5218C7.43769 18.6685 7.23872 18.7509 7.03126 18.7509C6.8238 18.7509 6.62483 18.6685 6.47814 18.5218C6.33144 18.3751 6.24902 18.1762 6.24902 17.9687C6.24902 17.7612 6.33144 17.5623 6.47814 17.4156L17.4156 6.47809C17.4882 6.40533 17.5744 6.34761 17.6693 6.30822C17.7642 6.26884 17.866 6.24857 17.9688 6.24857C18.0715 6.24857 18.1733 6.26884 18.2682 6.30822C18.3631 6.34761 18.4493 6.40533 18.5219 6.47809Z" fill="white" fill-opacity="0.6"/>
<path fill-rule="evenodd" clip-rule="evenodd" d="M6.47812 6.47809C6.40536 6.55066 6.34764 6.63687 6.30825 6.73178C6.26887 6.8267 6.2486 6.92845 6.2486 7.03121C6.2486 7.13397 6.26887 7.23573 6.30825 7.33064C6.34764 7.42555 6.40536 7.51177 6.47812 7.58434L17.4156 18.5218C17.5623 18.6685 17.7613 18.7509 17.9687 18.7509C18.1762 18.7509 18.3752 18.6685 18.5219 18.5218C18.6686 18.3751 18.751 18.1762 18.751 17.9687C18.751 17.7612 18.6686 17.5623 18.5219 17.4156L7.58437 6.47809C7.5118 6.40533 7.42558 6.34761 7.33067 6.30822C7.23576 6.26884 7.134 6.24857 7.03124 6.24857C6.92848 6.24857 6.82673 6.26884 6.73182 6.30822C6.6369 6.34761 6.55069 6.40533 6.47812 6.47809Z" fill="white" fill-opacity="0.6"/>
</g>
<defs>
<clipPath id="clip0">
<rect width="25" height="25" fill="white"/>
</clipPath>
</defs>
</svg>
