<svg width="35" height="20" viewBox="0 0 35 20" fill="none" xmlns="http://www.w3.org/2000/svg">
<path fill-rule="evenodd" clip-rule="evenodd" d="M0.625 18.5312C0.625 18.1583 0.773158 17.8006 1.03688 17.5369C1.3006 17.2732 1.65829 17.125 2.03125 17.125H10.4688C10.8417 17.125 11.1994 17.2732 11.4631 17.5369C11.7268 17.8006 11.875 18.1583 11.875 18.5312C11.875 18.9042 11.7268 19.2619 11.4631 19.5256C11.1994 19.7893 10.8417 19.9375 10.4688 19.9375H2.03125C1.65829 19.9375 1.3006 19.7893 1.03688 19.5256C0.773158 19.2619 0.625 18.9042 0.625 18.5312ZM0.625 10.0938C0.625 9.72079 0.773158 9.3631 1.03688 9.09938C1.3006 8.83566 1.65829 8.6875 2.03125 8.6875H21.7188C22.0917 8.6875 22.4494 8.83566 22.7131 9.09938C22.9768 9.3631 23.125 9.72079 23.125 10.0938C23.125 10.4667 22.9768 10.8244 22.7131 11.0881C22.4494 11.3518 22.0917 11.5 21.7188 11.5H2.03125C1.65829 11.5 1.3006 11.3518 1.03688 11.0881C0.773158 10.8244 0.625 10.4667 0.625 10.0938ZM0.625 1.65625C0.625 1.28329 0.773158 0.925604 1.03688 0.661881C1.3006 0.398158 1.65829 0.25 2.03125 0.25H32.9688C33.3417 0.25 33.6994 0.398158 33.9631 0.661881C34.2268 0.925604 34.375 1.28329 34.375 1.65625C34.375 2.02921 34.2268 2.3869 33.9631 2.65062C33.6994 2.91434 33.3417 3.0625 32.9688 3.0625H2.03125C1.65829 3.0625 1.3006 2.91434 1.03688 2.65062C0.773158 2.3869 0.625 2.02921 0.625 1.65625Z" fill="white" fill-opacity="0.7"/>
</svg>
