<svg width="32" height="30" viewBox="0 0 32 30" fill="none" xmlns="http://www.w3.org/2000/svg">
<path fill-rule="evenodd" clip-rule="evenodd" d="M16.425 6.5625C16.683 6.5625 16.9304 6.66127 17.1128 6.83709C17.2952 7.0129 17.3977 7.25136 17.3977 7.5V15C17.3977 15.2486 17.2952 15.4871 17.1128 15.6629C16.9304 15.8387 16.683 15.9375 16.425 15.9375H8.64377C8.3858 15.9375 8.13841 15.8387 7.956 15.6629C7.77359 15.4871 7.67111 15.2486 7.67111 15C7.67111 14.7514 7.77359 14.5129 7.956 14.3371C8.13841 14.1613 8.3858 14.0625 8.64377 14.0625H15.4524V7.5C15.4524 7.25136 15.5548 7.0129 15.7372 6.83709C15.9197 6.66127 16.1671 6.5625 16.425 6.5625V6.5625Z" fill="#D6D6D6"/>
<path fill-rule="evenodd" clip-rule="evenodd" d="M15.4524 15C15.4524 14.7514 15.5548 14.5129 15.7372 14.3371C15.9197 14.1613 16.1671 14.0625 16.425 14.0625H24.2063C24.4642 14.0625 24.7116 14.1613 24.894 14.3371C25.0764 14.5129 25.1789 14.7514 25.1789 15C25.1789 15.2486 25.0764 15.4871 24.894 15.6629C24.7116 15.8387 24.4642 15.9375 24.2063 15.9375H17.3977V22.5C17.3977 22.7486 17.2952 22.9871 17.1128 23.1629C16.9304 23.3387 16.683 23.4375 16.425 23.4375C16.1671 23.4375 15.9197 23.3387 15.7372 23.1629C15.5548 22.9871 15.4524 22.7486 15.4524 22.5V15Z" fill="#D6D6D6"/>
</svg>
